{
	"asset":{
		"generator":"Khronos glTF Blender I/O v3.6.27",
		"version":"2.0"
	},
	"scene":0,
	"scenes":[
		{
			"name":"Scene",
			"nodes":[
				0,
				1,
				2,
				3,
				4,
				5,
				6,
				7,
				8,
				9
			]
		}
	],
	"nodes":[
		{
			"mesh":0,
			"name":"Ramp1"
		},
		{
			"mesh":1,
			"name":"Ramp2"
		},
		{
			"mesh":2,
			"name":"Ramp3"
		},
		{
			"mesh":3,
			"name":"Ramp4"
		},
		{
			"mesh":4,
			"name":"Ramp5"
		},
		{
			"mesh":5,
			"name":"Ramp6"
		},
		{
			"mesh":6,
			"name":"Ground"
		},
		{
			"mesh":7,
			"name":"Obstacle"
		},
		{
			"mesh":8,
			"name":"SecRamp1"
		},
		{
			"mesh":9,
			"name":"SecRamp2"
		}
	],
	"materials":[
		{
			"doubleSided":true,
			"name":"Material",
			"pbrMetallicRoughness":{
				"baseColorTexture":{
					"index":0
				},
				"metallicFactor":0,
				"roughnessFactor":0.5
			}
		}
	],
	"meshes":[
		{
			"name":"Ramp1",
			"primitives":[
				{
					"attributes":{
						"POSITION":0,
						"NORMAL":1,
						"TEXCOORD_0":2
					},
					"indices":3,
					"material":0
				}
			]
		},
		{
			"name":"Ramp2",
			"primitives":[
				{
					"attributes":{
						"POSITION":4,
						"NORMAL":5,
						"TEXCOORD_0":6
					},
					"indices":7,
					"material":0
				}
			]
		},
		{
			"name":"Ramp3",
			"primitives":[
				{
					"attributes":{
						"POSITION":8,
						"NORMAL":9,
						"TEXCOORD_0":10
					},
					"indices":11,
					"material":0
				}
			]
		},
		{
			"name":"Ramp4",
			"primitives":[
				{
					"attributes":{
						"POSITION":12,
						"NORMAL":13,
						"TEXCOORD_0":14
					},
					"indices":15,
					"material":0
				}
			]
		},
		{
			"name":"Ramp5",
			"primitives":[
				{
					"attributes":{
						"POSITION":16,
						"NORMAL":17,
						"TEXCOORD_0":18
					},
					"indices":19,
					"material":0
				}
			]
		},
		{
			"name":"Ramp6",
			"primitives":[
				{
					"attributes":{
						"POSITION":20,
						"NORMAL":21,
						"TEXCOORD_0":22
					},
					"indices":23,
					"material":0
				}
			]
		},
		{
			"name":"Ground",
			"primitives":[
				{
					"attributes":{
						"POSITION":24,
						"NORMAL":25,
						"TEXCOORD_0":26
					},
					"indices":27,
					"material":0
				}
			]
		},
		{
			"name":"Obstacle",
			"primitives":[
				{
					"attributes":{
						"POSITION":28,
						"NORMAL":29,
						"TEXCOORD_0":30
					},
					"indices":31,
					"material":0
				}
			]
		},
		{
			"name":"SecRamp1",
			"primitives":[
				{
					"attributes":{
						"POSITION":32,
						"NORMAL":33,
						"TEXCOORD_0":34
					},
					"indices":35,
					"material":0
				}
			]
		},
		{
			"name":"SecRamp2",
			"primitives":[
				{
					"attributes":{
						"POSITION":36,
						"NORMAL":37,
						"TEXCOORD_0":38
					},
					"indices":39,
					"material":0
				}
			]
		}
	],
	"textures":[
		{
			"sampler":0,
			"source":0
		}
	],
	"images":[
		{
			"mimeType":"image/png",
			"name":"Untitled",
			"uri":"Untitled.png"
		}
	],
	"accessors":[
		{
			"bufferView":0,
			"componentType":5126,
			"count":24,
			"max":[
				-2.3490238189697266,
				3.3187155723571777,
				10.5083646774292
			],
			"min":[
				-7.773730278015137,
				3.337860107421875e-06,
				4.116630554199219
			],
			"type":"VEC3"
		},
		{
			"bufferView":1,
			"componentType":5126,
			"count":24,
			"type":"VEC3"
		},
		{
			"bufferView":2,
			"componentType":5126,
			"count":24,
			"type":"VEC2"
		},
		{
			"bufferView":3,
			"componentType":5123,
			"count":36,
			"type":"SCALAR"
		},
		{
			"bufferView":4,
			"componentType":5126,
			"count":24,
			"max":[
				-4.761028289794922,
				7.436622142791748,
				14.367301940917969
			],
			"min":[
				-9.66843318939209,
				3.337860107421875e-06,
				9.029155731201172
			],
			"type":"VEC3"
		},
		{
			"bufferView":5,
			"componentType":5126,
			"count":24,
			"type":"VEC3"
		},
		{
			"bufferView":6,
			"componentType":5126,
			"count":24,
			"type":"VEC2"
		},
		{
			"bufferView":7,
			"componentType":5123,
			"count":36,
			"type":"SCALAR"
		},
		{
			"bufferView":8,
			"componentType":5126,
			"count":24,
			"max":[
				-6.655732154846191,
				8.565202713012695,
				19.298166275024414
			],
			"min":[
				-12.089442253112793,
				3.337860107421875e-06,
				12.888092994689941
			],
			"type":"VEC3"
		},
		{
			"bufferView":9,
			"componentType":5126,
			"count":24,
			"type":"VEC3"
		},
		{
			"bufferView":10,
			"componentType":5126,
			"count":24,
			"type":"VEC2"
		},
		{
			"bufferView":11,
			"componentType":5123,
			"count":36,
			"type":"SCALAR"
		},
		{
			"bufferView":12,
			"componentType":5126,
			"count":24,
			"max":[
				-5.361724853515625,
				3.3187155723571777,
				9.029155731201172
			],
			"min":[
				-10.493059158325195,
				3.337860107421875e-06,
				2.781463623046875
			],
			"type":"VEC3"
		},
		{
			"bufferView":13,
			"componentType":5126,
			"count":24,
			"type":"VEC3"
		},
		{
			"bufferView":14,
			"componentType":5126,
			"count":24,
			"type":"VEC2"
		},
		{
			"bufferView":15,
			"componentType":5123,
			"count":36,
			"type":"SCALAR"
		},
		{
			"bufferView":16,
			"componentType":5126,
			"count":24,
			"max":[
				-7.773730278015137,
				7.436622142791748,
				12.888092994689941
			],
			"min":[
				-12.387763023376465,
				3.337860107421875e-06,
				7.693990230560303
			],
			"type":"VEC3"
		},
		{
			"bufferView":17,
			"componentType":5126,
			"count":24,
			"type":"VEC3"
		},
		{
			"bufferView":18,
			"componentType":5126,
			"count":24,
			"type":"VEC2"
		},
		{
			"bufferView":19,
			"componentType":5123,
			"count":36,
			"type":"SCALAR"
		},
		{
			"bufferView":20,
			"componentType":5126,
			"count":24,
			"max":[
				-9.66843318939209,
				8.565202713012695,
				17.81895637512207
			],
			"min":[
				-14.808772087097168,
				3.337860107421875e-06,
				11.552927017211914
			],
			"type":"VEC3"
		},
		{
			"bufferView":21,
			"componentType":5126,
			"count":24,
			"type":"VEC3"
		},
		{
			"bufferView":22,
			"componentType":5126,
			"count":24,
			"type":"VEC2"
		},
		{
			"bufferView":23,
			"componentType":5123,
			"count":36,
			"type":"SCALAR"
		},
		{
			"bufferView":24,
			"componentType":5126,
			"count":4,
			"max":[
				19.555011749267578,
				3.337860107421875e-06,
				24.900978088378906
			],
			"min":[
				-22.059595108032227,
				0,
				-5.781794548034668
			],
			"type":"VEC3"
		},
		{
			"bufferView":25,
			"componentType":5126,
			"count":4,
			"type":"VEC3"
		},
		{
			"bufferView":26,
			"componentType":5126,
			"count":4,
			"type":"VEC2"
		},
		{
			"bufferView":27,
			"componentType":5123,
			"count":6,
			"type":"SCALAR"
		},
		{
			"bufferView":28,
			"componentType":5126,
			"count":24,
			"max":[
				12.396446228027344,
				8.141897201538086,
				12.560870170593262
			],
			"min":[
				9.025787353515625,
				3.90010929107666,
				9.19021224975586
			],
			"type":"VEC3"
		},
		{
			"bufferView":29,
			"componentType":5126,
			"count":24,
			"type":"VEC3"
		},
		{
			"bufferView":30,
			"componentType":5126,
			"count":24,
			"type":"VEC2"
		},
		{
			"bufferView":31,
			"componentType":5123,
			"count":36,
			"type":"SCALAR"
		},
		{
			"bufferView":32,
			"componentType":5126,
			"count":24,
			"max":[
				12.649272918701172,
				3.963151454925537,
				11.871790885925293
			],
			"min":[
				3.9725494384765625,
				-0.18260812759399414,
				4.066617965698242
			],
			"type":"VEC3"
		},
		{
			"bufferView":33,
			"componentType":5126,
			"count":24,
			"type":"VEC3"
		},
		{
			"bufferView":34,
			"componentType":5126,
			"count":24,
			"type":"VEC2"
		},
		{
			"bufferView":35,
			"componentType":5123,
			"count":36,
			"type":"SCALAR"
		},
		{
			"bufferView":36,
			"componentType":5126,
			"count":24,
			"max":[
				12.537193298339844,
				3.963151454925537,
				17.679096221923828
			],
			"min":[
				3.9725494384765625,
				-0.1605978012084961,
				10.860024452209473
			],
			"type":"VEC3"
		},
		{
			"bufferView":37,
			"componentType":5126,
			"count":24,
			"type":"VEC3"
		},
		{
			"bufferView":38,
			"componentType":5126,
			"count":24,
			"type":"VEC2"
		},
		{
			"bufferView":39,
			"componentType":5123,
			"count":36,
			"type":"SCALAR"
		}
	],
	"bufferViews":[
		{
			"buffer":0,
			"byteLength":288,
			"byteOffset":0,
			"target":34962
		},
		{
			"buffer":0,
			"byteLength":288,
			"byteOffset":288,
			"target":34962
		},
		{
			"buffer":0,
			"byteLength":192,
			"byteOffset":576,
			"target":34962
		},
		{
			"buffer":0,
			"byteLength":72,
			"byteOffset":768,
			"target":34963
		},
		{
			"buffer":0,
			"byteLength":288,
			"byteOffset":840,
			"target":34962
		},
		{
			"buffer":0,
			"byteLength":288,
			"byteOffset":1128,
			"target":34962
		},
		{
			"buffer":0,
			"byteLength":192,
			"byteOffset":1416,
			"target":34962
		},
		{
			"buffer":0,
			"byteLength":72,
			"byteOffset":1608,
			"target":34963
		},
		{
			"buffer":0,
			"byteLength":288,
			"byteOffset":1680,
			"target":34962
		},
		{
			"buffer":0,
			"byteLength":288,
			"byteOffset":1968,
			"target":34962
		},
		{
			"buffer":0,
			"byteLength":192,
			"byteOffset":2256,
			"target":34962
		},
		{
			"buffer":0,
			"byteLength":72,
			"byteOffset":2448,
			"target":34963
		},
		{
			"buffer":0,
			"byteLength":288,
			"byteOffset":2520,
			"target":34962
		},
		{
			"buffer":0,
			"byteLength":288,
			"byteOffset":2808,
			"target":34962
		},
		{
			"buffer":0,
			"byteLength":192,
			"byteOffset":3096,
			"target":34962
		},
		{
			"buffer":0,
			"byteLength":72,
			"byteOffset":3288,
			"target":34963
		},
		{
			"buffer":0,
			"byteLength":288,
			"byteOffset":3360,
			"target":34962
		},
		{
			"buffer":0,
			"byteLength":288,
			"byteOffset":3648,
			"target":34962
		},
		{
			"buffer":0,
			"byteLength":192,
			"byteOffset":3936,
			"target":34962
		},
		{
			"buffer":0,
			"byteLength":72,
			"byteOffset":4128,
			"target":34963
		},
		{
			"buffer":0,
			"byteLength":288,
			"byteOffset":4200,
			"target":34962
		},
		{
			"buffer":0,
			"byteLength":288,
			"byteOffset":4488,
			"target":34962
		},
		{
			"buffer":0,
			"byteLength":192,
			"byteOffset":4776,
			"target":34962
		},
		{
			"buffer":0,
			"byteLength":72,
			"byteOffset":4968,
			"target":34963
		},
		{
			"buffer":0,
			"byteLength":48,
			"byteOffset":5040,
			"target":34962
		},
		{
			"buffer":0,
			"byteLength":48,
			"byteOffset":5088,
			"target":34962
		},
		{
			"buffer":0,
			"byteLength":32,
			"byteOffset":5136,
			"target":34962
		},
		{
			"buffer":0,
			"byteLength":12,
			"byteOffset":5168,
			"target":34963
		},
		{
			"buffer":0,
			"byteLength":288,
			"byteOffset":5180,
			"target":34962
		},
		{
			"buffer":0,
			"byteLength":288,
			"byteOffset":5468,
			"target":34962
		},
		{
			"buffer":0,
			"byteLength":192,
			"byteOffset":5756,
			"target":34962
		},
		{
			"buffer":0,
			"byteLength":72,
			"byteOffset":5948,
			"target":34963
		},
		{
			"buffer":0,
			"byteLength":288,
			"byteOffset":6020,
			"target":34962
		},
		{
			"buffer":0,
			"byteLength":288,
			"byteOffset":6308,
			"target":34962
		},
		{
			"buffer":0,
			"byteLength":192,
			"byteOffset":6596,
			"target":34962
		},
		{
			"buffer":0,
			"byteLength":72,
			"byteOffset":6788,
			"target":34963
		},
		{
			"buffer":0,
			"byteLength":288,
			"byteOffset":6860,
			"target":34962
		},
		{
			"buffer":0,
			"byteLength":288,
			"byteOffset":7148,
			"target":34962
		},
		{
			"buffer":0,
			"byteLength":192,
			"byteOffset":7436,
			"target":34962
		},
		{
			"buffer":0,
			"byteLength":72,
			"byteOffset":7628,
			"target":34963
		}
	],
	"samplers":[
		{
			"magFilter":9729,
			"minFilter":9987
		}
	],
	"buffers":[
		{
			"byteLength":7700,
			"uri":"Collisions.bin"
		}
	]
}
