{
	"asset":{
		"generator":"Khronos glTF Blender I/O v3.6.27",
		"version":"2.0"
	},
	"extensionsUsed":[
		"KHR_materials_specular",
		"KHR_materials_ior"
	],
	"scene":0,
	"scenes":[
		{
			"name":"Scene",
			"nodes":[
				0,
				1,
				2,
				3,
				4,
				5
			]
		}
	],
	"nodes":[
		{
			"mesh":0,
			"name":"Wall.B"
		},
		{
			"mesh":1,
			"name":"Wall.N"
		},
		{
			"mesh":2,
			"name":"Wall.W"
		},
		{
			"mesh":3,
			"name":"Wall.S"
		},
		{
			"mesh":4,
			"name":"Wall.E"
		},
		{
			"mesh":5,
			"name":"Wall.T"
		}
	],
	"materials":[
		{
			"extensions":{
				"KHR_materials_specular":{
					"specularColorFactor":[
						0,
						0,
						0
					]
				},
				"KHR_materials_ior":{
					"ior":1.4500000476837158
				}
			},
			"name":"Material",
			"pbrMetallicRoughness":{
				"baseColorTexture":{
					"index":0
				},
				"metallicFactor":0,
				"roughnessFactor":0.5
			}
		}
	],
	"meshes":[
		{
			"name":"Cube",
			"primitives":[
				{
					"attributes":{
						"POSITION":0,
						"NORMAL":1,
						"TEXCOORD_0":2
					},
					"indices":3,
					"material":0
				}
			]
		},
		{
			"name":"Cube.001",
			"primitives":[
				{
					"attributes":{
						"POSITION":4,
						"NORMAL":5,
						"TEXCOORD_0":6
					},
					"indices":7,
					"material":0
				}
			]
		},
		{
			"name":"Cube.002",
			"primitives":[
				{
					"attributes":{
						"POSITION":8,
						"NORMAL":9,
						"TEXCOORD_0":10
					},
					"indices":7,
					"material":0
				}
			]
		},
		{
			"name":"Cube.003",
			"primitives":[
				{
					"attributes":{
						"POSITION":11,
						"NORMAL":12,
						"TEXCOORD_0":13
					},
					"indices":14,
					"material":0
				}
			]
		},
		{
			"name":"Cube.004",
			"primitives":[
				{
					"attributes":{
						"POSITION":15,
						"NORMAL":16,
						"TEXCOORD_0":17
					},
					"indices":14,
					"material":0
				}
			]
		},
		{
			"name":"Cube.005",
			"primitives":[
				{
					"attributes":{
						"POSITION":18,
						"NORMAL":19,
						"TEXCOORD_0":20
					},
					"indices":21,
					"material":0
				}
			]
		}
	],
	"textures":[
		{
			"sampler":0,
			"source":0
		}
	],
	"images":[
		{
			"mimeType":"image/png",
			"name":"UVGrid",
			"uri":"UVGrid.png"
		}
	],
	"accessors":[
		{
			"bufferView":0,
			"componentType":5126,
			"count":4,
			"max":[
				7.488931655883789,
				0,
				7.488932132720947
			],
			"min":[
				-7.488932132720947,
				0,
				-7.488932132720947
			],
			"type":"VEC3"
		},
		{
			"bufferView":1,
			"componentType":5126,
			"count":4,
			"type":"VEC3"
		},
		{
			"bufferView":2,
			"componentType":5126,
			"count":4,
			"type":"VEC2"
		},
		{
			"bufferView":3,
			"componentType":5123,
			"count":6,
			"type":"SCALAR"
		},
		{
			"bufferView":4,
			"componentType":5126,
			"count":4,
			"max":[
				7.488931655883789,
				14.977863311767578,
				-7.488932132720947
			],
			"min":[
				-7.488932132720947,
				0,
				-7.488932132720947
			],
			"type":"VEC3"
		},
		{
			"bufferView":5,
			"componentType":5126,
			"count":4,
			"type":"VEC3"
		},
		{
			"bufferView":6,
			"componentType":5126,
			"count":4,
			"type":"VEC2"
		},
		{
			"bufferView":7,
			"componentType":5123,
			"count":6,
			"type":"SCALAR"
		},
		{
			"bufferView":8,
			"componentType":5126,
			"count":4,
			"max":[
				-7.488932132720947,
				14.977863311767578,
				7.488932132720947
			],
			"min":[
				-7.488932132720947,
				0,
				-7.488932132720947
			],
			"type":"VEC3"
		},
		{
			"bufferView":9,
			"componentType":5126,
			"count":4,
			"type":"VEC3"
		},
		{
			"bufferView":10,
			"componentType":5126,
			"count":4,
			"type":"VEC2"
		},
		{
			"bufferView":11,
			"componentType":5126,
			"count":4,
			"max":[
				7.488931655883789,
				14.977863311767578,
				7.488932132720947
			],
			"min":[
				-7.488932132720947,
				0,
				7.488932132720947
			],
			"type":"VEC3"
		},
		{
			"bufferView":12,
			"componentType":5126,
			"count":4,
			"type":"VEC3"
		},
		{
			"bufferView":13,
			"componentType":5126,
			"count":4,
			"type":"VEC2"
		},
		{
			"bufferView":14,
			"componentType":5123,
			"count":6,
			"type":"SCALAR"
		},
		{
			"bufferView":15,
			"componentType":5126,
			"count":4,
			"max":[
				7.488931655883789,
				14.977863311767578,
				7.488932132720947
			],
			"min":[
				7.488931655883789,
				0,
				-7.488932132720947
			],
			"type":"VEC3"
		},
		{
			"bufferView":16,
			"componentType":5126,
			"count":4,
			"type":"VEC3"
		},
		{
			"bufferView":17,
			"componentType":5126,
			"count":4,
			"type":"VEC2"
		},
		{
			"bufferView":18,
			"componentType":5126,
			"count":4,
			"max":[
				7.488931655883789,
				14.977863311767578,
				7.488932132720947
			],
			"min":[
				-7.488932132720947,
				14.977863311767578,
				-7.488932132720947
			],
			"type":"VEC3"
		},
		{
			"bufferView":19,
			"componentType":5126,
			"count":4,
			"type":"VEC3"
		},
		{
			"bufferView":20,
			"componentType":5126,
			"count":4,
			"type":"VEC2"
		},
		{
			"bufferView":21,
			"componentType":5123,
			"count":6,
			"type":"SCALAR"
		}
	],
	"bufferViews":[
		{
			"buffer":0,
			"byteLength":48,
			"byteOffset":0,
			"target":34962
		},
		{
			"buffer":0,
			"byteLength":48,
			"byteOffset":48,
			"target":34962
		},
		{
			"buffer":0,
			"byteLength":32,
			"byteOffset":96,
			"target":34962
		},
		{
			"buffer":0,
			"byteLength":12,
			"byteOffset":128,
			"target":34963
		},
		{
			"buffer":0,
			"byteLength":48,
			"byteOffset":140,
			"target":34962
		},
		{
			"buffer":0,
			"byteLength":48,
			"byteOffset":188,
			"target":34962
		},
		{
			"buffer":0,
			"byteLength":32,
			"byteOffset":236,
			"target":34962
		},
		{
			"buffer":0,
			"byteLength":12,
			"byteOffset":268,
			"target":34963
		},
		{
			"buffer":0,
			"byteLength":48,
			"byteOffset":280,
			"target":34962
		},
		{
			"buffer":0,
			"byteLength":48,
			"byteOffset":328,
			"target":34962
		},
		{
			"buffer":0,
			"byteLength":32,
			"byteOffset":376,
			"target":34962
		},
		{
			"buffer":0,
			"byteLength":48,
			"byteOffset":408,
			"target":34962
		},
		{
			"buffer":0,
			"byteLength":48,
			"byteOffset":456,
			"target":34962
		},
		{
			"buffer":0,
			"byteLength":32,
			"byteOffset":504,
			"target":34962
		},
		{
			"buffer":0,
			"byteLength":12,
			"byteOffset":536,
			"target":34963
		},
		{
			"buffer":0,
			"byteLength":48,
			"byteOffset":548,
			"target":34962
		},
		{
			"buffer":0,
			"byteLength":48,
			"byteOffset":596,
			"target":34962
		},
		{
			"buffer":0,
			"byteLength":32,
			"byteOffset":644,
			"target":34962
		},
		{
			"buffer":0,
			"byteLength":48,
			"byteOffset":676,
			"target":34962
		},
		{
			"buffer":0,
			"byteLength":48,
			"byteOffset":724,
			"target":34962
		},
		{
			"buffer":0,
			"byteLength":32,
			"byteOffset":772,
			"target":34962
		},
		{
			"buffer":0,
			"byteLength":12,
			"byteOffset":804,
			"target":34963
		}
	],
	"samplers":[
		{
			"magFilter":9729,
			"minFilter":9987
		}
	],
	"buffers":[
		{
			"byteLength":816,
			"uri":"BoxRoomSeparate.bin"
		}
	]
}
